<svg xmlns="http://www.w3.org/2000/svg" viewBox="0 0 120 200">
  <defs>
    <linearGradient id="lg" x1="0%" y1="0%" x2="100%" y2="100%">
      <stop offset="0%" stop-color="#F0D080"/>
      <stop offset="50%" stop-color="#C9A84C"/>
      <stop offset="100%" stop-color="#9B7A30"/>
    </linearGradient>
  </defs>
  <!-- Main stem -->
  <path d="M60,190 Q55,120 50,60" fill="none" stroke="url(#lg)" stroke-width="1.5" opacity="0.8"/>
  <!-- Large leaf -->
  <path d="M50,60 Q20,30 10,10 Q40,20 60,50 Q65,30 75,15 Q80,40 50,60Z" fill="url(#lg)" opacity="0.75"/>
  <!-- Mid leaf right -->
  <path d="M53,95 Q70,75 85,65 Q75,85 53,95Z" fill="url(#lg)" opacity="0.65"/>
  <!-- Mid leaf left -->
  <path d="M55,110 Q35,95 22,88 Q38,100 55,110Z" fill="url(#lg)" opacity="0.6"/>
  <!-- Small leaf right -->
  <path d="M54,140 Q68,125 78,118 Q68,132 54,140Z" fill="url(#lg)" opacity="0.55"/>
  <!-- Small leaf left -->
  <path d="M55,155 Q42,143 34,138 Q44,146 55,155Z" fill="url(#lg)" opacity="0.5"/>
  <!-- Tiny berries -->
  <circle cx="10" cy="10" r="4" fill="#C9A84C" opacity="0.7"/>
  <circle cx="75" cy="15" r="3" fill="#C9A84C" opacity="0.6"/>
  <circle cx="85" cy="65" r="2.5" fill="#C9A84C" opacity="0.55"/>
</svg>
